<svg width="24" height="29" viewBox="0 0 24 29" fill="none" xmlns="http://www.w3.org/2000/svg">
<path d="M14.0171 5.68763C13.7175 5.3428 13.2424 5.35639 12.957 5.71889C12.6712 6.08139 12.6832 6.65505 12.9829 7.00033L18.7361 13.5938H3.75C3.336 13.5938 3 13.9998 3 14.5C3 15.0003 3.336 15.4063 3.75 15.4063H18.7121L12.9829 22.0001C12.6829 22.3454 12.6712 22.9191 12.957 23.2816C13.1044 23.4683 13.302 23.5625 13.5 23.5625C13.686 23.5625 13.872 23.4796 14.0171 23.3124L20.5605 15.7814C20.844 15.4393 21 14.9844 21 14.5C21 14.0156 20.844 13.5607 20.5474 13.2032L14.0171 5.68763Z" fill="white"/>
</svg>
