<svg width="34" height="26" viewBox="0 0 34 26" fill="none" xmlns="http://www.w3.org/2000/svg">
<g clip-path="url(#clip0)">
<path d="M21.6898 9.5106C21.25 9.5106 20.8936 9.77581 20.8936 10.103V21.3003C20.8936 21.6274 21.25 21.8928 21.6898 21.8928C22.1296 21.8928 22.4861 21.6274 22.4861 21.3003V10.103C22.4861 9.77581 22.1296 9.5106 21.6898 9.5106Z" fill="white"/>
<path d="M12.294 9.5106C11.8542 9.5106 11.4977 9.77581 11.4977 10.103V21.3003C11.4977 21.6274 11.8542 21.8928 12.294 21.8928C12.7338 21.8928 13.0902 21.6274 13.0902 21.3003V10.103C13.0902 9.77581 12.7338 9.5106 12.294 9.5106Z" fill="white"/>
<path d="M5.4463 7.8765V22.4732C5.4463 23.3359 5.87148 24.1462 6.61423 24.7275C7.35356 25.3105 8.38247 25.6414 9.45927 25.6428H24.5246C25.6017 25.6414 26.6306 25.3105 27.3696 24.7275C28.1124 24.1462 28.5376 23.3359 28.5376 22.4732V7.8765C30.014 7.58491 30.9708 6.52359 30.7733 5.39632C30.5755 4.26928 29.285 3.4262 27.7572 3.42597H23.6804V2.68541C23.6851 2.06264 23.3542 1.46464 22.7616 1.0247C22.1691 0.584994 21.3641 0.340146 20.5272 0.345237H13.4567C12.6197 0.340146 11.8147 0.584994 11.2222 1.0247C10.6297 1.46464 10.2988 2.06264 10.3034 2.68541V3.42597H6.22668C4.69888 3.4262 3.40839 4.26928 3.21057 5.39632C3.01307 6.52359 3.96981 7.58491 5.4463 7.8765ZM24.5246 24.4579H9.45927C8.09787 24.4579 7.0388 23.5877 7.0388 22.4732V7.92858H26.9451V22.4732C26.9451 23.5877 25.886 24.4579 24.5246 24.4579ZM11.8959 2.68541C11.8906 2.37692 12.0536 2.08 12.3479 1.86223C12.6418 1.64446 13.0418 1.52481 13.4567 1.53013H20.5272C20.9421 1.52481 21.3421 1.64446 21.636 1.86223C21.9302 2.07977 22.0932 2.37692 22.0879 2.68541V3.42597H11.8959V2.68541ZM6.22668 4.61086H27.7572C28.5488 4.61086 29.1904 5.08829 29.1904 5.67727C29.1904 6.26625 28.5488 6.74368 27.7572 6.74368H6.22668C5.4351 6.74368 4.79343 6.26625 4.79343 5.67727C4.79343 5.08829 5.4351 4.61086 6.22668 4.61086Z" fill="white"/>
<path d="M16.9919 9.5106C16.5521 9.5106 16.1957 9.77581 16.1957 10.103V21.3003C16.1957 21.6274 16.5521 21.8928 16.9919 21.8928C17.4317 21.8928 17.7882 21.6274 17.7882 21.3003V10.103C17.7882 9.77581 17.4317 9.5106 16.9919 9.5106Z" fill="white"/>
</g>
<defs>
<clipPath id="clip0">
<rect width="34" height="25.2976" fill="white" transform="translate(0 0.345238)"/>
</clipPath>
</defs>
</svg>
