<svg width="258" height="150" viewBox="0 0 258 150" fill="none" xmlns="http://www.w3.org/2000/svg">
<g clip-path="url(#clip0)">
<path d="M129.828 150C199.787 150 256.5 145.986 256.5 141.034C256.5 136.082 199.787 132.068 129.828 132.068C59.869 132.068 3.15619 136.082 3.15619 141.034C3.15619 145.986 59.869 150 129.828 150Z" fill="#F2F2F2"/>
<path d="M124.973 42.8794C104.335 42.8794 89.5165 57.0363 89.5165 90.0691C89.5165 127.506 104.335 137.416 124.973 137.416C145.611 137.416 161.312 126.562 161.312 90.0691C161.312 51.0589 145.611 42.8794 124.973 42.8794ZM125.108 124.989C110.814 124.989 103.346 116.023 103.346 90.0933C103.346 67.214 111.12 55.1487 125.414 55.1487C139.709 55.1487 147.482 63.0739 147.482 90.0933C147.482 115.369 139.403 124.989 125.108 124.989Z" fill="#2F2E41"/>
<path d="M77.1583 111.304H68.6253V84.4385C68.6253 83.0116 68.0951 81.643 67.1514 80.634C66.2076 79.625 64.9277 79.0582 63.593 79.0582H61.5936C60.9327 79.0582 60.2784 79.1973 59.6678 79.4677C59.0573 79.7381 58.5025 80.1344 58.0352 80.634C57.568 81.1336 57.1973 81.7268 56.9444 82.3796C56.6915 83.0323 56.5613 83.732 56.5613 84.4385V111.304H32.4925C31.9973 111.304 31.5106 111.168 31.0795 110.907C30.6484 110.647 30.2875 110.272 30.0319 109.818C29.7764 109.365 29.6347 108.849 29.6208 108.319C29.6069 107.79 29.7211 107.266 29.9524 106.798L55.4266 55.2481C55.7442 54.6054 55.9367 53.9006 55.9925 53.1761C56.0483 52.4517 55.9662 51.7227 55.7512 51.0331C55.5362 50.3435 55.1927 49.7077 54.7415 49.1639C54.2903 48.6202 53.7408 48.1799 53.126 47.8695L51.6222 47.1102C50.4545 46.5207 49.1196 46.4336 47.8935 46.8671C46.6675 47.3005 45.6442 48.2213 45.0354 49.4389L13.9663 111.58C13.4373 112.638 13.1605 113.82 13.1605 115.02C13.1605 115.978 13.337 116.926 13.6799 117.812C14.0228 118.697 14.5254 119.501 15.1591 120.179C15.7927 120.856 16.5449 121.393 17.3728 121.76C18.2007 122.127 19.088 122.315 19.9841 122.315H56.5613V139.304C56.5613 140.151 56.7173 140.989 57.0205 141.772C57.3236 142.554 57.7679 143.265 58.328 143.864C58.8882 144.463 59.5531 144.938 60.285 145.262C61.0168 145.586 61.8012 145.753 62.5933 145.753H62.5933C63.3854 145.753 64.1698 145.586 64.9016 145.262C65.6335 144.938 66.2984 144.463 66.8586 143.864C67.4187 143.265 67.863 142.554 68.1661 141.772C68.4693 140.989 68.6253 140.151 68.6253 139.304V122.315H77.1583C78.524 122.315 79.8337 121.735 80.7994 120.703C81.7651 119.67 82.3076 118.27 82.3076 116.81C82.3076 115.35 81.7651 113.949 80.7994 112.917C79.8337 111.884 78.524 111.304 77.1583 111.304Z" fill="#00B0FF"/>
<path d="M235.167 111.304H226.634V84.4385C226.634 83.0116 226.104 81.643 225.16 80.634C224.216 79.625 222.936 79.0582 221.602 79.0582H219.602C218.941 79.0582 218.287 79.1973 217.676 79.4677C217.066 79.7381 216.511 80.1344 216.044 80.634C215.576 81.1336 215.206 81.7268 214.953 82.3796C214.7 83.0323 214.57 83.732 214.57 84.4385V111.304H190.501C190.006 111.304 189.519 111.168 189.088 110.907C188.657 110.647 188.296 110.272 188.04 109.818C187.785 109.365 187.643 108.849 187.629 108.319C187.615 107.79 187.73 107.266 187.961 106.798L213.435 55.2481C213.753 54.6054 213.945 53.9006 214.001 53.1761C214.057 52.4517 213.975 51.7227 213.76 51.0331C213.545 50.3435 213.201 49.7077 212.75 49.1639C212.299 48.6202 211.749 48.1799 211.135 47.8695L209.631 47.1102C208.463 46.5207 207.128 46.4336 205.902 46.8671C204.676 47.3005 203.653 48.2213 203.044 49.4389L171.975 111.58C171.446 112.638 171.169 113.82 171.169 115.02C171.169 116.955 171.888 118.81 173.168 120.179C174.447 121.547 176.183 122.315 177.993 122.315H214.57V139.304C214.57 141.014 215.205 142.655 216.337 143.864C217.468 145.073 219.002 145.753 220.602 145.753C222.202 145.753 223.736 145.073 224.867 143.864C225.998 142.655 226.634 141.014 226.634 139.304V122.315H235.167C236.532 122.315 237.842 121.735 238.808 120.703C239.774 119.67 240.316 118.27 240.316 116.81C240.316 115.35 239.774 113.949 238.808 112.917C237.842 111.884 236.533 111.304 235.167 111.304Z" fill="#00B0FF"/>
<path d="M79.5123 108.158H70.9792V81.2925C70.9792 80.586 70.8491 79.8863 70.5962 79.2336C70.3433 78.5808 69.9726 77.9877 69.5053 77.4881C69.038 76.9884 68.4833 76.5921 67.8727 76.3217C67.2622 76.0513 66.6078 75.9122 65.947 75.9122H63.9475C62.6129 75.9122 61.3329 76.479 60.3892 77.4881C59.4454 78.4971 58.9153 79.8656 58.9153 81.2925V108.158H34.8464C34.3513 108.158 33.8645 108.022 33.4334 107.761C33.0023 107.501 32.6415 107.126 32.3859 106.672C32.1303 106.219 31.9887 105.703 31.9747 105.173C31.9608 104.644 32.075 104.12 32.3064 103.652L57.7805 52.1021C58.0981 51.4594 58.2906 50.7546 58.3464 50.0302C58.4022 49.3057 58.3201 48.5767 58.1051 47.8871C57.8901 47.1976 57.5466 46.5617 57.0955 46.018C56.6443 45.4742 56.0947 45.0339 55.4799 44.7235L53.9761 43.9642C52.8085 43.3747 51.4735 43.2876 50.2475 43.7211C49.0214 44.1545 47.9982 45.0753 47.3894 46.2929L16.3203 108.434C15.7912 109.492 15.5144 110.674 15.5144 111.874V111.874C15.5144 113.809 16.2333 115.664 17.513 117.033C18.7927 118.401 20.5283 119.169 22.3381 119.169H58.9153V136.158C58.9153 137.005 59.0713 137.843 59.3744 138.626C59.6775 139.408 60.1219 140.119 60.682 140.718C61.2421 141.317 61.9071 141.792 62.6389 142.116C63.3707 142.44 64.1551 142.607 64.9472 142.607H64.9472C66.547 142.607 68.0813 141.927 69.2125 140.718C70.3437 139.509 70.9792 137.868 70.9792 136.158V119.169H79.5123C80.1885 119.169 80.8581 119.027 81.4828 118.75C82.1075 118.474 82.6752 118.068 83.1533 117.557C83.6315 117.046 84.0108 116.439 84.2695 115.771C84.5283 115.103 84.6615 114.387 84.6615 113.664V113.664C84.6615 112.941 84.5283 112.225 84.2696 111.557C84.0108 110.889 83.6315 110.282 83.1533 109.771C82.6752 109.26 82.1075 108.854 81.4828 108.578C80.8581 108.301 80.1885 108.158 79.5123 108.158V108.158Z" stroke="#3F3D56" stroke-miterlimit="10"/>
<path d="M239.58 108.158H231.047V81.2925C231.047 79.8656 230.517 78.4971 229.574 77.4881C228.63 76.479 227.35 75.9122 226.015 75.9122H224.016C223.355 75.9122 222.701 76.0513 222.09 76.3217C221.479 76.5921 220.925 76.9884 220.457 77.4881C219.99 77.9877 219.619 78.5808 219.367 79.2336C219.114 79.8863 218.983 80.586 218.983 81.2925V108.158H194.915C194.42 108.158 193.933 108.022 193.502 107.761C193.071 107.501 192.71 107.126 192.454 106.672C192.199 106.219 192.057 105.703 192.043 105.173C192.029 104.644 192.143 104.12 192.375 103.652L217.849 52.1021C218.166 51.4594 218.359 50.7546 218.415 50.0302C218.47 49.3057 218.388 48.5767 218.173 47.8871C217.958 47.1976 217.615 46.5617 217.164 46.018C216.713 45.4742 216.163 45.0339 215.548 44.7235L214.044 43.9642C212.877 43.3747 211.542 43.2876 210.316 43.7211C209.09 44.1545 208.066 45.0753 207.458 46.2929L176.388 108.434C175.859 109.492 175.583 110.674 175.583 111.874C175.583 113.809 176.302 115.664 177.581 117.033C178.861 118.401 180.597 119.169 182.406 119.169H218.983V136.158C218.983 137.868 219.619 139.509 220.75 140.718C221.881 141.927 223.416 142.607 225.015 142.607V142.607C226.615 142.607 228.149 141.927 229.281 140.718C230.412 139.509 231.047 137.868 231.047 136.158V119.169H239.58C240.257 119.169 240.926 119.027 241.551 118.75C242.176 118.474 242.743 118.068 243.222 117.557C243.7 117.046 244.079 116.439 244.338 115.771C244.597 115.103 244.73 114.387 244.73 113.664V113.664C244.73 112.204 244.187 110.803 243.222 109.771C242.256 108.739 240.946 108.158 239.58 108.158V108.158Z" stroke="#3F3D56" stroke-miterlimit="10"/>
<path d="M129.681 40.048C109.043 40.048 94.2245 54.2049 94.2245 87.2377C94.2245 124.675 109.043 134.585 129.681 134.585C150.319 134.585 166.02 123.731 166.02 87.2377C166.02 48.2275 150.319 40.048 129.681 40.048ZM129.816 122.158C115.522 122.158 108.054 113.192 108.054 87.2619C108.054 64.3826 115.828 52.3173 130.122 52.3173C144.417 52.3173 152.19 60.2425 152.19 87.2619C152.19 112.538 144.111 122.158 129.816 122.158V122.158Z" stroke="#3F3D56" stroke-miterlimit="10"/>
<path d="M113.138 7.99811C114.849 7.99811 116.236 6.51512 116.236 4.68576C116.236 2.8564 114.849 1.37341 113.138 1.37341C111.427 1.37341 110.04 2.8564 110.04 4.68576C110.04 6.51512 111.427 7.99811 113.138 7.99811Z" fill="#2F2E41"/>
<path d="M120.694 24.0751C125.493 24.0751 129.384 18.6857 129.384 12.0376C129.384 5.3894 125.493 0 120.694 0C115.895 0 112.004 5.3894 112.004 12.0376C112.004 18.6857 115.895 24.0751 120.694 24.0751Z" fill="#2F2E41"/>
<path opacity="0.1" d="M120.694 20.4396C116.341 20.4396 112.736 16.0054 112.103 10.2198C112.037 10.8232 112.004 11.4301 112.004 12.0376C112.004 18.6857 115.895 24.0751 120.694 24.0751C125.493 24.0751 129.384 18.6857 129.384 12.0376C129.384 11.4301 129.351 10.8232 129.285 10.2198C128.652 16.0054 125.047 20.4396 120.694 20.4396Z" fill="black"/>
<path d="M138.376 47.2901C138.19 48.11 137.385 48.7666 136.494 49.2254C134.62 50.19 132.31 50.4778 130.068 50.5744C129.496 50.6116 128.923 50.6002 128.352 50.5405C127.248 50.4262 126.211 49.9168 125.411 49.0947C125.353 49.0548 125.307 49.0002 125.275 48.9358C125.243 48.8714 125.226 48.7994 125.227 48.7265C125.228 48.6536 125.247 48.5821 125.281 48.5188C125.315 48.4555 125.363 48.4024 125.421 48.3645C126.614 46.9629 128.606 46.1036 130.612 45.4848C132.133 45.0156 134.786 43.8003 136.445 43.9643C138.052 44.1232 138.612 46.2548 138.376 47.2901Z" fill="#3F3D56"/>
<path opacity="0.1" d="M138.376 47.2901C138.19 48.11 137.385 48.7666 136.494 49.2254C134.62 50.19 132.31 50.4778 130.068 50.5744C129.496 50.6116 128.923 50.6002 128.352 50.5405C127.248 50.4262 126.211 49.9168 125.411 49.0947C125.353 49.0548 125.307 49.0002 125.275 48.9358C125.243 48.8714 125.226 48.7994 125.227 48.7265C125.228 48.6536 125.247 48.5821 125.281 48.5188C125.315 48.4555 125.363 48.4024 125.421 48.3645C126.614 46.9629 128.606 46.1036 130.612 45.4848C132.133 45.0156 134.786 43.8003 136.445 43.9643C138.052 44.1232 138.612 46.2548 138.376 47.2901Z" fill="black"/>
<path d="M114.555 41.1622C113.983 42.3605 113.88 43.7526 114.267 45.0326C114.662 46.3028 115.4 47.4195 116.388 48.2411C118.812 50.3186 122.148 50.6045 125.255 50.5757C127.977 50.5503 130.696 50.3511 133.396 49.979C134.301 49.8933 135.191 49.6725 136.038 49.3232C137.052 48.8541 137.943 47.9938 138.304 46.8775C138.665 45.7611 138.409 44.3941 137.552 43.649C136.798 42.9944 135.76 42.9044 134.791 42.8421L129.247 42.4859C129.794 41.8932 130.524 41.558 131.191 41.1271C132.076 40.5555 132.664 39.5958 133.307 38.7305C134.298 37.4636 135.377 36.2778 136.534 35.183C136.714 36.2897 137.369 37.1984 138.14 37.962C138.911 38.7256 139.799 39.3404 140.6 40.0674C142.54 41.8283 143.937 44.2182 145.977 45.8443C147.381 45.45 148.693 44.7497 149.831 43.7872L149.038 42.2515C148.972 42.0935 148.869 41.9562 148.739 41.8528C148.515 41.7052 148.225 41.7813 147.965 41.7395C147.268 41.6278 146.964 40.7679 146.69 40.0739C145.94 38.1684 144.503 36.6899 143.276 35.092C142.371 33.9124 141.567 32.6472 140.876 31.3119C140.464 30.5156 140.086 29.6864 139.527 29.0004C138.968 28.3143 138.184 27.7749 137.332 27.773C136.58 27.7713 135.887 28.1796 135.24 28.5902C133.27 29.8411 131.375 31.2216 129.565 32.7236C128.618 33.5097 127.677 34.3402 126.566 34.8222C126.099 35.0252 125.606 35.1639 125.157 35.4108C124.371 35.8432 123.774 36.575 123.132 37.2245C120.842 39.5411 117.706 41.0421 114.555 41.1622Z" fill="#3F3D56"/>
<path d="M126.148 24.673C126.122 25.3811 125.981 26.079 125.732 26.7355C125.605 27.0629 125.417 27.3589 125.179 27.6051C124.94 27.8513 124.657 28.0423 124.347 28.1663C123.906 28.2925 123.444 28.3086 122.996 28.2131C122.606 28.1695 122.23 28.0326 121.896 27.8124C121.376 27.4303 121.117 26.7484 121.023 26.0811C120.928 25.4146 120.971 24.7335 120.91 24.0622C120.851 23.5199 120.755 22.9831 120.622 22.4561C120.581 22.2808 120.539 22.1063 120.498 21.9318C120.458 21.7573 120.419 21.5828 120.383 21.4083C120.349 21.2443 120.318 21.0795 120.292 20.9138C120.27 20.7741 120.25 20.6335 120.236 20.4921C120.223 20.073 120.158 19.6576 120.042 19.2569C119.933 18.997 119.797 18.7511 119.637 18.5241C119.568 18.4191 119.502 18.3141 119.44 18.205C119.263 17.9216 119.181 17.5825 119.207 17.2428C119.214 17.1903 119.226 17.1386 119.242 17.0885C119.249 17.0691 119.255 17.0497 119.263 17.0311C119.331 17.0114 119.393 16.9742 119.445 16.9228C119.496 16.8714 119.535 16.8074 119.558 16.7362C119.584 16.5834 119.572 16.4259 119.523 16.2798C119.466 16.0756 119.389 15.8786 119.292 15.6924C119.229 15.5696 119.014 15.3483 119.012 15.2077C119.009 14.9249 119.526 14.6971 119.735 14.5856C120.374 14.2436 121.086 14.0891 121.8 14.1381C122.257 14.1712 122.752 14.3214 123.005 14.731C123.231 15.1002 123.201 15.5785 123.298 16.0075C123.308 16.0699 123.333 16.1285 123.37 16.178C123.419 16.226 123.481 16.2565 123.547 16.2652C123.659 16.289 123.774 16.2939 123.887 16.2798H123.888C123.918 16.2772 123.948 16.2726 123.977 16.266C124.154 16.2312 124.321 16.1542 124.465 16.0406C124.559 16.014 124.653 15.9922 124.749 15.9752C124.753 15.9748 124.756 15.974 124.76 15.9728C125.139 17.25 125.188 18.6194 125.498 19.9201C125.651 20.5672 125.871 21.2063 125.902 21.872C125.904 21.9011 125.905 21.931 125.906 21.9608C125.91 22.1749 125.894 22.3906 125.903 22.6039C125.905 22.7 125.916 22.7956 125.933 22.8899C125.967 23.0416 126.009 23.1911 126.059 23.3375L126.061 23.3448C126.076 23.3916 126.089 23.4393 126.1 23.487C126.109 23.5217 126.116 23.5556 126.122 23.5904L126.123 23.5928C126.179 23.9498 126.188 24.3134 126.148 24.673Z" fill="#FBBEBE"/>
<path d="M120.845 16.3194C123.307 16.3194 125.303 14.1853 125.303 11.5528C125.303 8.92033 123.307 6.78627 120.845 6.78627C118.383 6.78627 116.387 8.92033 116.387 11.5528C116.387 14.1853 118.383 16.3194 120.845 16.3194Z" fill="#FBBEBE"/>
<path d="M149.149 37.5232C149.02 36.2228 148.588 34.9778 147.892 33.9023C148.007 34.6375 148.123 35.3724 148.239 36.107C148.095 36.1517 147.942 36.1503 147.798 36.1031C147.654 36.0559 147.527 35.9649 147.431 35.8412C147.243 35.5906 147.099 35.3057 147.007 35.0002C146.5 33.6559 145.838 32.3848 145.036 31.2169C142.197 30.964 139.392 29.7061 136.896 28.2398C134.399 26.7743 132.063 25.0171 129.6 23.4894C129.173 23.2134 128.728 22.9704 128.268 22.7623C127.498 22.4318 126.632 22.2606 125.902 21.872C125.853 21.8461 125.804 21.8187 125.755 21.7904C125.59 21.6944 125.434 21.5822 125.288 21.4551C125.21 21.3868 125.135 21.3134 125.065 21.2354C124.7 20.7819 124.411 20.2649 124.21 19.7068C123.818 18.7794 123.678 17.6605 123.287 16.733C123.466 16.5532 123.669 16.4007 123.887 16.2798H123.888C123.92 16.262 123.951 16.245 123.984 16.2289C124.139 16.1509 124.3 16.0879 124.465 16.0406C124.559 16.014 124.653 15.9922 124.749 15.9752C124.753 15.9748 124.756 15.974 124.76 15.9728C125.202 15.8959 125.654 15.9341 126.079 16.0843C126.7 16.3089 127.223 16.7572 127.745 17.1814C128.594 17.8203 129.407 18.5103 130.182 19.248C130.613 19.6891 131.006 20.1738 131.469 20.5745C131.854 20.8921 132.26 21.1797 132.683 21.4349C135.19 23.0313 137.696 24.6274 140.203 26.2233C141.052 26.7638 141.901 27.3042 142.731 27.8762C143.991 28.7455 145.206 29.6875 146.421 30.6287C147.136 31.1829 147.851 31.7374 148.567 32.2921C148.801 32.4522 149.007 32.6557 149.175 32.8932C149.323 33.1629 149.415 33.4635 149.445 33.7746C149.624 35.0316 149.523 36.3161 149.149 37.5232Z" fill="#FBBEBE"/>
<path d="M127.254 28.2576C126.953 29.6996 125.59 30.5714 124.877 31.8381C123.992 33.4103 124.353 35.2377 124.685 37.0385C124.078 37.5984 123.47 38.1582 122.862 38.7181C122.526 39.0259 122.191 39.3353 121.83 39.6076C121.303 39.9849 120.753 40.3229 120.182 40.6191C119.644 40.9148 119.106 41.2107 118.568 41.5069C118.068 41.8076 117.538 42.0477 116.988 42.2227C115.928 42.5136 114.802 42.31 113.754 41.9731C113.63 41.9384 113.511 41.8865 113.4 41.8188C113.335 41.7771 113.278 41.7219 113.232 41.6564C113.129 41.4582 113.091 41.2284 113.126 41.0044C113.232 39.1172 113.664 37.2696 114.094 35.4357C114.324 34.3354 114.632 33.2558 115.018 32.2065C115.396 31.3074 115.83 30.4366 116.318 29.6003C116.857 28.5479 117.495 27.5574 118.222 26.6442C118.577 26.2927 118.875 25.8817 119.105 25.4275C119.373 24.7731 119.27 24.0226 119.324 23.31C119.366 22.7747 119.499 22.252 119.716 21.7678V21.767C119.833 21.5062 119.973 21.2583 120.135 21.0269C120.208 21.2095 120.281 21.3918 120.355 21.5739C120.403 21.6934 120.451 21.8128 120.498 21.9318C120.56 22.0853 120.622 22.2383 120.683 22.3907C120.859 22.8286 121.035 23.2662 121.21 23.7035C121.4 24.2543 121.67 24.7695 122.011 25.2296C122.167 25.4652 122.377 25.6536 122.621 25.7764C122.866 25.8991 123.136 25.9521 123.405 25.93C123.674 25.908 123.933 25.8117 124.157 25.6505C124.381 25.4894 124.562 25.2689 124.682 25.0107C124.936 24.5286 125.12 24.008 125.228 23.4668C125.377 22.8078 125.398 22.123 125.288 21.4551C125.106 20.169 124.595 18.8554 124.223 17.6605C124.071 17.2621 123.984 16.8393 123.964 16.4099C123.964 16.3616 123.969 16.3135 123.977 16.2661C123.979 16.2539 123.982 16.241 123.984 16.2289C124.139 16.1509 124.3 16.0879 124.465 16.0407C124.559 16.014 124.653 15.9922 124.749 15.9752C125.076 17.8689 125.404 19.7626 125.732 21.6563C125.739 21.7007 125.748 21.7452 125.755 21.7904C125.802 22.0619 125.85 22.3333 125.903 22.604C125.95 22.8495 126.002 23.0943 126.059 23.3375L126.061 23.3448C126.081 23.4272 126.101 23.5088 126.122 23.5904L126.123 23.5928C126.181 23.8158 126.246 24.0371 126.32 24.2553C126.764 25.5697 127.538 26.893 127.254 28.2576Z" fill="#00B0FF"/>
<path d="M145.346 48.5234C145.332 48.8012 145.383 49.0784 145.493 49.3304C145.772 49.8757 146.441 49.9996 147.021 50.0506C150.405 50.348 153.809 50.2371 157.17 49.7199C157.353 49.7066 157.529 49.6479 157.687 49.5485C158.165 49.1903 157.87 48.3174 157.348 48.0379C156.827 47.7585 156.207 47.8258 155.635 47.7048C155.066 47.5517 154.524 47.3006 154.031 46.9612C152.87 46.248 151.726 45.5045 150.599 44.7306C149.928 44.2698 149.136 43.7781 148.38 44.0513C146.333 44.7917 145.333 46.1623 145.346 48.5234Z" fill="#3F3D56"/>
<path d="M120.4 21.3073V21.3081C120.395 21.342 120.39 21.3751 120.383 21.4083C120.374 21.4632 120.365 21.5189 120.355 21.5739C120.261 22.0869 120.146 22.5975 120.014 23.1048C119.651 24.5065 119.165 25.8856 118.683 27.2445C117.39 30.888 116.096 34.5319 114.802 38.176C114.475 39.0938 114.15 40.0123 113.779 40.9115C113.655 41.2112 113.527 41.5134 113.4 41.8188C112.945 42.9118 112.508 44.0405 112.363 45.2038C112.228 45.9695 112.212 46.7538 112.317 47.5249C112.462 48.2876 112.895 49.0324 113.573 49.3144C113.904 49.4525 114.378 49.6375 114.287 50.0051C114.238 50.2071 114.023 50.3057 113.831 50.3396C113.576 50.3829 113.316 50.3659 113.068 50.2897C112.821 50.2134 112.592 50.0799 112.398 49.8985C112.036 49.5551 111.758 49.0211 111.277 48.9638C110.944 48.925 110.637 49.1383 110.331 49.2877C109.086 49.8961 107.635 49.4703 106.327 49.0381C106.43 48.4718 106.962 48.0985 107.49 47.9854C108.019 47.8715 108.565 47.9523 109.104 47.9369C109.276 47.9468 109.447 47.8997 109.594 47.802C109.725 47.673 109.818 47.5047 109.858 47.3189C110.205 46.2195 110.464 45.0902 110.63 43.9435C110.804 42.7454 110.876 41.5288 111.124 40.3452C111.317 39.4218 111.615 38.5275 111.87 37.621C112.364 35.7547 112.769 33.8629 113.085 31.9528C113.245 31.1593 113.359 30.3561 113.427 29.5477C113.47 28.8772 113.45 28.2034 113.51 27.5353C113.612 26.6661 113.781 25.8075 114.017 24.9686C114.249 24.0533 114.48 23.1385 114.71 22.2242C115.053 20.871 115.42 19.4653 116.287 18.4134C116.589 18.0431 116.958 17.7429 117.372 17.5314C117.786 17.3199 118.237 17.2016 118.695 17.1838C118.867 17.1836 119.039 17.2034 119.207 17.2428C119.235 17.2501 119.263 17.2573 119.291 17.2654C119.474 17.3166 119.65 17.3943 119.813 17.4965C120.08 17.3147 120.216 17.3785 120.394 17.6588C120.55 17.9555 120.623 18.2935 120.606 18.6332C120.621 19.5296 120.552 20.4255 120.4 21.3073Z" fill="#FBBEBE"/>
<path d="M120.694 22.3785L120.683 22.3907L120.622 22.4561L120.014 23.1048L119.716 21.7678L118.695 17.1838C118.867 17.1836 119.039 17.2034 119.207 17.2428C119.214 17.1903 119.226 17.1386 119.242 17.0885L119.291 17.2654L119.637 18.5241L120.292 20.9138L120.4 21.3073V21.3081L120.694 22.3785Z" fill="#00B0FF"/>
<path d="M124.549 7.7545C124.549 8.17896 124.47 8.59914 124.317 8.99104C124.165 9.38294 123.942 9.73887 123.661 10.0385C123.559 10.1475 123.45 10.2485 123.334 10.3405C122.812 10.7608 122.177 10.9883 121.524 10.9886H117.899C117.098 10.9873 116.33 10.6461 115.764 10.04C115.198 9.43397 114.881 8.61252 114.881 7.75608C114.881 6.89963 115.198 6.07818 115.764 5.47211C116.33 4.86605 117.098 4.5249 117.899 4.52357H121.524C122.325 4.5258 123.093 4.86682 123.66 5.47217C124.227 6.07751 124.546 6.89801 124.549 7.7545Z" fill="#2F2E41"/>
<path d="M127.948 7.99811C129.659 7.99811 131.046 6.51512 131.046 4.68576C131.046 2.8564 129.659 1.37341 127.948 1.37341C126.237 1.37341 124.85 2.8564 124.85 4.68576C124.85 6.51512 126.237 7.99811 127.948 7.99811Z" fill="#2F2E41"/>
<path opacity="0.1" d="M127.872 1.37341C127.834 1.37341 127.797 1.37503 127.759 1.37648C128.56 1.40763 129.319 1.76992 129.876 2.38713C130.433 3.00433 130.744 3.82834 130.744 4.68576C130.744 5.54319 130.433 6.36719 129.876 6.9844C129.319 7.6016 128.56 7.9639 127.759 7.99505C127.797 7.9965 127.834 7.99811 127.872 7.99811C128.694 7.99811 129.482 7.64913 130.063 7.02794C130.644 6.40676 130.97 5.56425 130.97 4.68576C130.97 3.80727 130.644 2.96476 130.063 2.34358C129.482 1.72239 128.694 1.37341 127.872 1.37341Z" fill="black"/>
<path opacity="0.1" d="M113.138 1.37341C113.176 1.37341 113.214 1.37503 113.251 1.37648C112.45 1.40763 111.691 1.76992 111.134 2.38713C110.578 3.00433 110.267 3.82834 110.267 4.68576C110.267 5.54319 110.578 6.36719 111.134 6.9844C111.691 7.6016 112.45 7.9639 113.251 7.99505C113.213 7.9965 113.176 7.99811 113.138 7.99811C112.317 7.99734 111.529 7.64802 110.949 7.02691C110.369 6.40581 110.043 5.56375 110.043 4.68576C110.043 3.80778 110.369 2.96571 110.949 2.34461C111.529 1.72351 112.317 1.37419 113.138 1.37341Z" fill="black"/>
<path opacity="0.1" d="M123.334 10.3405C122.813 10.7608 122.177 10.9883 121.524 10.9886H117.899C117.246 10.9883 116.611 10.7608 116.09 10.3405H123.334Z" fill="black"/>
<path d="M146.744 34.3415C146.744 34.3415 147.525 36.7477 148.239 36.107L147.67 32.9619L146.744 34.3415Z" fill="#FBBEBE"/>
<path d="M241.784 107.718C242.512 108.001 243.29 108.099 244.059 108.005C244.828 107.911 245.567 107.628 246.215 107.177C246.864 106.726 247.407 106.12 247.799 105.406C248.192 104.693 248.424 103.892 248.477 103.067C248.531 102.241 248.405 101.413 248.108 100.649C247.811 99.8846 247.353 99.2043 246.768 98.6617C246.184 98.1191 245.49 97.729 244.74 97.5223C243.991 97.3155 243.207 97.2977 242.45 97.4703L242.575 100.221L241.358 97.8636C240.163 98.4636 239.24 99.5462 238.792 100.873C238.633 101.338 238.536 101.825 238.505 102.319C238.428 103.478 238.706 104.632 239.298 105.606C239.89 106.58 240.763 107.322 241.784 107.718Z" fill="#57B894"/>
<path d="M247.806 139.618C247.376 137.279 249.238 135.205 251.077 133.857C252.916 132.509 255.064 131.185 255.692 128.898C256.593 125.61 253.908 122.6 251.817 120.003C250.266 118.077 248.934 115.96 247.849 113.698C247.414 112.791 247.014 111.843 246.9 110.831C246.735 109.374 247.173 107.924 247.614 106.534C249.084 101.904 250.655 97.3125 252.328 92.7598" stroke="#3F3D56" stroke-miterlimit="10"/>
<path d="M241.99 107.01C242.717 107.293 243.496 107.391 244.265 107.297C245.034 107.203 245.772 106.92 246.421 106.469C247.07 106.018 247.612 105.412 248.005 104.698C248.397 103.985 248.63 103.184 248.683 102.358C248.737 101.533 248.61 100.705 248.314 99.9409C248.017 99.1765 247.559 98.4962 246.974 97.9536C246.39 97.411 245.695 97.0209 244.946 96.8142C244.197 96.6074 243.412 96.5896 242.655 96.7622L242.781 99.5125L241.563 97.1555C240.369 97.7555 239.446 98.8381 238.998 100.165C238.839 100.63 238.742 101.117 238.71 101.611C238.634 102.77 238.912 103.924 239.504 104.898C240.096 105.872 240.968 106.614 241.99 107.01V107.01Z" stroke="#3F3D56" stroke-miterlimit="10"/>
<path d="M247.195 91.81C247.481 90.9678 247.96 90.216 248.588 89.6238C249.217 89.0316 249.975 88.6182 250.792 88.4215L251.204 91.0362L251.967 88.2901C253.026 88.3069 254.053 88.6831 254.899 89.3646C255.745 90.046 256.367 90.9974 256.675 92.0813C256.982 93.1652 256.96 94.3255 256.61 95.3948C256.261 96.4641 255.603 97.387 254.731 98.0302C253.859 98.6734 252.818 99.0037 251.759 98.9734C250.7 98.9431 249.677 98.5537 248.839 97.8616C248 97.1694 247.389 96.2102 247.094 95.1224C246.798 94.0347 246.834 92.8747 247.195 91.81H247.195Z" fill="#57B894"/>
<path d="M247.47 90.8658C247.755 90.0237 248.234 89.2718 248.863 88.6797C249.492 88.0875 250.249 87.674 251.067 87.4774L251.478 90.092L252.241 87.3459C253.301 87.3627 254.327 87.739 255.174 88.4205C256.02 89.1019 256.642 90.0532 256.949 91.1371C257.257 92.221 257.234 93.3814 256.885 94.4506C256.535 95.5199 255.877 96.4428 255.005 97.086C254.133 97.7293 253.092 98.0596 252.033 98.0293C250.974 97.999 249.952 97.6096 249.113 96.9174C248.275 96.2252 247.664 95.266 247.368 94.1783C247.073 93.0906 247.108 91.9306 247.47 90.8658H247.47Z" stroke="#3F3D56" stroke-miterlimit="10"/>
<path d="M250.94 120.056C252.093 120.504 253.361 120.482 254.5 119.994C255.639 119.507 256.571 118.588 257.118 117.414C257.665 116.239 257.788 114.89 257.464 113.624C257.14 112.359 256.392 111.265 255.363 110.551L254.777 112.661L254.361 110.016C254.357 110.014 254.353 110.012 254.348 110.011C253.731 109.771 253.076 109.663 252.42 109.694C251.764 109.725 251.12 109.894 250.526 110.192C249.931 110.489 249.397 110.908 248.954 111.426C248.51 111.944 248.167 112.55 247.943 113.21C247.719 113.87 247.619 114.571 247.649 115.272C247.678 115.973 247.837 116.661 248.115 117.297C248.393 117.933 248.786 118.504 249.27 118.977C249.755 119.451 250.322 119.817 250.94 120.056H250.94Z" fill="#57B894"/>
<path d="M251.178 119.1C252.331 119.547 253.598 119.525 254.738 119.038C255.877 118.551 256.809 117.632 257.356 116.457C257.902 115.283 258.026 113.934 257.702 112.668C257.378 111.403 256.63 110.308 255.601 109.595L255.014 111.705L254.599 109.059C254.595 109.057 254.59 109.056 254.586 109.054C253.969 108.814 253.314 108.707 252.658 108.738C252.002 108.769 251.358 108.938 250.763 109.235C250.169 109.532 249.634 109.952 249.191 110.47C248.748 110.988 248.405 111.594 248.181 112.254C247.957 112.914 247.857 113.614 247.886 114.316C247.916 115.017 248.074 115.705 248.353 116.341C248.631 116.977 249.024 117.548 249.508 118.021C249.993 118.494 250.56 118.861 251.178 119.1H251.178Z" stroke="#3F3D56" stroke-miterlimit="10"/>
<path d="M245.737 128.93C245.935 130.137 246.515 131.234 247.381 132.038C248.246 132.841 249.343 133.302 250.488 133.343C251.634 133.385 252.757 133.004 253.671 132.264C254.585 131.525 255.233 130.472 255.507 129.282C255.781 128.092 255.664 126.838 255.175 125.73C254.687 124.621 253.857 123.726 252.824 123.194C251.792 122.663 250.62 122.527 249.505 122.809C248.39 123.092 247.399 123.775 246.7 124.746L248.926 128.329L245.884 126.427C245.648 127.237 245.598 128.095 245.737 128.93Z" fill="#57B894"/>
<path d="M245.942 128.222C246.141 129.429 246.721 130.526 247.586 131.33C248.452 132.133 249.549 132.594 250.694 132.635C251.839 132.677 252.963 132.296 253.877 131.556C254.791 130.817 255.439 129.764 255.713 128.574C255.986 127.384 255.869 126.13 255.381 125.022C254.892 123.913 254.062 123.018 253.03 122.486C251.998 121.954 250.826 121.818 249.71 122.101C248.595 122.383 247.605 123.067 246.906 124.038L249.132 127.621L246.09 125.719C245.854 126.529 245.803 127.387 245.942 128.222V128.222Z" stroke="#3F3D56" stroke-miterlimit="10"/>
<path d="M2.16302 120.735C2.64096 120.921 3.15273 120.986 3.65798 120.924C4.16323 120.862 4.64816 120.676 5.07454 120.379C5.50092 120.083 5.85711 119.685 6.11501 119.216C6.37292 118.748 6.52549 118.221 6.56072 117.679C6.59595 117.137 6.51286 116.593 6.31801 116.091C6.12315 115.588 5.82186 115.141 5.43788 114.785C5.05389 114.428 4.59771 114.172 4.10529 114.036C3.61287 113.9 3.09768 113.889 2.60031 114.002L2.6825 115.809L1.88288 114.26C1.09809 114.655 0.491818 115.366 0.197277 116.238C0.0926737 116.543 0.0290824 116.863 0.0084007 117.188C-0.0420718 117.949 0.140962 118.707 0.529764 119.347C0.918567 119.988 1.49195 120.475 2.16302 120.735Z" fill="#57B894"/>
<path d="M6.11957 141.694C5.8373 140.157 7.06042 138.794 8.26858 137.909C9.47674 137.023 10.8884 136.153 11.3006 134.65C11.8931 132.491 10.1284 130.513 8.75486 128.807C7.73584 127.541 6.86074 126.15 6.14787 124.664C5.83795 124.08 5.62686 123.443 5.52432 122.781C5.41602 121.823 5.7037 120.871 5.99352 119.957C6.95902 116.915 7.9913 113.898 9.09037 110.907" stroke="#3F3D56" stroke-miterlimit="10"/>
<path d="M2.29877 120.27C2.77671 120.456 3.28847 120.52 3.79372 120.459C4.29897 120.397 4.7839 120.21 5.21028 119.914C5.63666 119.618 5.99284 119.22 6.25075 118.751C6.50865 118.282 6.66123 117.756 6.69646 117.214C6.73168 116.671 6.6486 116.128 6.45375 115.625C6.25889 115.123 5.9576 114.676 5.57362 114.32C5.18963 113.963 4.73345 113.707 4.24104 113.571C3.74862 113.435 3.23342 113.424 2.73605 113.537L2.81824 115.344L2.01862 113.795C1.23384 114.19 0.62756 114.901 0.33302 115.773C0.228417 116.078 0.164827 116.398 0.144144 116.722C0.0936681 117.484 0.276701 118.242 0.665504 118.882C1.05431 119.522 1.62769 120.01 2.29877 120.27V120.27Z" stroke="#3F3D56" stroke-miterlimit="10"/>
<path d="M5.7182 110.283C5.90576 109.73 6.22057 109.236 6.6336 108.847C7.04663 108.458 7.54461 108.186 8.08164 108.057L8.352 109.775L8.85325 107.971C9.54921 107.982 10.2239 108.229 10.7799 108.677C11.3358 109.124 11.7444 109.749 11.9464 110.461C12.1485 111.174 12.1337 111.936 11.9041 112.638C11.6745 113.341 11.242 113.947 10.6691 114.37C10.0962 114.793 9.41249 115.01 8.71671 114.99C8.02092 114.97 7.34906 114.714 6.79812 114.259C6.24718 113.804 5.84567 113.174 5.65156 112.46C5.45745 111.745 5.48079 110.983 5.7182 110.283Z" fill="#57B894"/>
<path d="M5.8985 109.663C6.08606 109.11 6.40086 108.616 6.8139 108.227C7.22693 107.837 7.7249 107.566 8.26194 107.437L8.5323 109.154L9.03355 107.35C9.72951 107.361 10.4042 107.608 10.9602 108.056C11.5161 108.504 11.9246 109.129 12.1267 109.841C12.3288 110.553 12.314 111.316 12.0844 112.018C11.8548 112.721 11.4223 113.327 10.8494 113.75C10.2765 114.172 9.59279 114.389 8.897 114.369C8.20122 114.349 7.52935 114.094 6.97841 113.639C6.42747 113.184 6.02596 112.554 5.83186 111.839C5.63775 111.125 5.66109 110.362 5.8985 109.663V109.663Z" stroke="#3F3D56" stroke-miterlimit="10"/>
<path d="M8.17841 128.842C8.93637 129.136 9.76901 129.121 10.5176 128.801C11.2662 128.481 11.8784 127.877 12.2376 127.105C12.5967 126.333 12.6777 125.447 12.465 124.616C12.2524 123.784 11.7609 123.065 11.0844 122.596L10.6993 123.983L10.4262 122.245C10.4235 122.243 10.4207 122.242 10.4178 122.241C10.0124 122.084 9.58188 122.013 9.1509 122.033C8.71991 122.054 8.2969 122.165 7.90604 122.36C7.51518 122.555 7.16414 122.831 6.87296 123.171C6.58179 123.511 6.3562 123.91 6.20908 124.343C6.06197 124.777 5.99621 125.237 6.01558 125.698C6.03494 126.159 6.13904 126.611 6.32193 127.029C6.50481 127.447 6.76291 127.822 7.08145 128.133C7.4 128.444 7.77275 128.685 8.17841 128.842Z" fill="#57B894"/>
<path d="M8.33464 128.213C9.09261 128.507 9.92524 128.493 10.6738 128.172C11.4224 127.852 12.0347 127.249 12.3938 126.477C12.753 125.705 12.8339 124.819 12.6212 123.987C12.4086 123.156 11.9172 122.437 11.2407 121.968L10.8555 123.354L10.5824 121.616C10.5797 121.615 10.5769 121.614 10.5741 121.613C10.1687 121.456 9.73837 121.385 9.30762 121.406C8.87686 121.427 8.45411 121.538 8.06352 121.733C7.27468 122.127 6.66468 122.841 6.36772 123.716C6.07075 124.591 6.11115 125.557 6.48002 126.4C6.84889 127.244 7.51602 127.896 8.33464 128.213V128.213Z" stroke="#3F3D56" stroke-miterlimit="10"/>
<path d="M4.75998 134.672C4.8903 135.465 5.27165 136.186 5.84006 136.714C6.40847 137.241 7.12938 137.544 7.88189 137.571C8.63439 137.599 9.37272 137.348 9.97307 136.862C10.5734 136.376 10.9992 135.685 11.1792 134.903C11.3591 134.121 11.2821 133.297 10.9612 132.569C10.6403 131.841 10.095 131.253 9.41666 130.903C8.73833 130.554 7.96827 130.464 7.23563 130.65C6.50299 130.836 5.85231 131.285 5.39274 131.923L6.85572 134.277L4.85673 133.027C4.70174 133.559 4.66856 134.123 4.75998 134.672Z" fill="#57B894"/>
<path d="M4.89517 134.207C5.0255 134.999 5.40684 135.72 5.97525 136.248C6.54366 136.776 7.26457 137.079 8.01708 137.106C8.76958 137.133 9.50792 136.883 10.1083 136.397C10.7086 135.911 11.1344 135.219 11.3144 134.438C11.4943 133.656 11.4173 132.832 11.0964 132.104C10.7755 131.375 10.2302 130.787 9.55185 130.438C8.87352 130.089 8.10347 129.999 7.37082 130.185C6.63818 130.37 5.98751 130.82 5.52793 131.457L6.99091 133.812L4.99193 132.562C4.83693 133.094 4.80375 133.658 4.89517 134.207V134.207Z" stroke="#3F3D56" stroke-miterlimit="10"/>
<path d="M115.492 87.5806C117.747 87.5806 119.575 85.0517 119.575 81.9322C119.575 78.8126 117.747 76.2837 115.492 76.2837C113.238 76.2837 111.41 78.8126 111.41 81.9322C111.41 85.0517 113.238 87.5806 115.492 87.5806Z" fill="#2F2E41"/>
<path d="M137.705 87.709C139.96 87.709 141.787 85.1801 141.787 82.0606C141.787 78.941 139.96 76.4121 137.705 76.4121C135.45 76.4121 133.623 78.941 133.623 82.0606C133.623 85.1801 135.45 87.709 137.705 87.709Z" fill="#2F2E41"/>
<path d="M134.583 98.7492C134.583 101.301 131.25 103.371 127.139 103.371C123.028 103.371 119.695 101.301 119.695 98.7492C119.695 96.5386 122.195 94.69 125.535 94.2381C126.067 94.1631 126.603 94.1262 127.139 94.1277C128.038 94.1246 128.934 94.2279 129.812 94.4358C132.602 95.1008 134.583 96.7825 134.583 98.7492Z" fill="#2F2E41"/>
<path d="M116.453 86.2969C118.708 86.2969 120.535 83.768 120.535 80.6484C120.535 77.5289 118.708 75 116.453 75C114.198 75 112.371 77.5289 112.371 80.6484C112.371 83.768 114.198 86.2969 116.453 86.2969Z" stroke="#3F3D56" stroke-miterlimit="10"/>
<path d="M138.665 86.4253C140.92 86.4253 142.748 83.8964 142.748 80.7768C142.748 77.6573 140.92 75.1284 138.665 75.1284C136.411 75.1284 134.583 77.6573 134.583 80.7768C134.583 83.8964 136.411 86.4253 138.665 86.4253Z" stroke="#3F3D56" stroke-miterlimit="10"/>
<path d="M128.099 102.087C132.211 102.087 135.544 100.018 135.544 97.4654C135.544 94.9131 132.211 92.844 128.099 92.844C123.988 92.844 120.655 94.9131 120.655 97.4654C120.655 100.018 123.988 102.087 128.099 102.087Z" stroke="#3F3D56" stroke-miterlimit="10"/>
<path d="M129.9 94.8209C129.902 95.1438 129.789 95.4553 129.583 95.6918C129.486 95.8051 129.368 95.8957 129.237 95.9579C129.106 96.0202 128.964 96.0526 128.82 96.0533H126.419C126.123 96.0423 125.843 95.9065 125.64 95.6755C125.438 95.4446 125.329 95.1373 125.338 94.8209C125.337 94.5706 125.405 94.3256 125.535 94.1171C126.066 94.0371 126.602 93.9978 127.139 93.9993C128.039 93.9962 128.936 94.1065 129.812 94.328C129.871 94.4846 129.901 94.652 129.9 94.8209Z" fill="white"/>
<path d="M116.453 80.3917C117.116 80.3917 117.654 79.817 117.654 79.108C117.654 78.399 117.116 77.8242 116.453 77.8242C115.79 77.8242 115.252 78.399 115.252 79.108C115.252 79.817 115.79 80.3917 116.453 80.3917Z" fill="white"/>
<path d="M138.786 80.3917C139.449 80.3917 139.986 79.817 139.986 79.108C139.986 78.399 139.449 77.8242 138.786 77.8242C138.122 77.8242 137.585 78.399 137.585 79.108C137.585 79.817 138.122 80.3917 138.786 80.3917Z" fill="white"/>
<path opacity="0.3" d="M139.986 92.4588C140.649 92.4588 141.187 91.8841 141.187 91.1751C141.187 90.4661 140.649 89.8914 139.986 89.8914C139.323 89.8914 138.786 90.4661 138.786 91.1751C138.786 91.8841 139.323 92.4588 139.986 92.4588Z" fill="#00B0FF"/>
<path opacity="0.3" d="M110.69 92.4588C111.353 92.4588 111.89 91.8841 111.89 91.1751C111.89 90.4661 111.353 89.8914 110.69 89.8914C110.027 89.8914 109.489 90.4661 109.489 91.1751C109.489 91.8841 110.027 92.4588 110.69 92.4588Z" fill="#00B0FF"/>
</g>
<defs>
<clipPath id="clip0">
<rect width="258" height="150" fill="white"/>
</clipPath>
</defs>
</svg>
